<svg id="Layer_1" data-name="Layer 1" xmlns="http://www.w3.org/2000/svg" viewBox="0 0 789.82 610.08"><defs><style>.cls-1,.cls-3{fill:#0d4e96;}.cls-1,.cls-2{stroke:#000;stroke-miterlimit:10;}.cls-1{stroke-width:8px;}.cls-2,.cls-7{fill:#fff;}.cls-2{stroke-width:5px;}.cls-4{fill:#f1f2f2;}.cls-5{fill:#f0e640;}.cls-6{fill:#0e0f08;}.cls-8{fill:#231f20;}.cls-9{fill:#ed1c24;}</style></defs><rect class="cls-1" x="4" y="4" width="781.82" height="602.08" rx="12"/><rect class="cls-2" x="4.4" y="134.23" width="390.6" height="286.85"/><rect class="cls-3" x="12.02" y="11.69" width="764.96" height="120.04"/><path class="cls-4" d="M166.33,28h19.92l36.1,63.41V28h17.71v90.94h-19L184,54.42v64.52H166.33Z" transform="translate(-1.18 -1.22)"/><path class="cls-4" d="M327.91,110.86q-10.31,10.62-29.8,10.61t-29.8-10.61q-13.81-13-13.82-37.51,0-25,13.82-37.51,10.31-10.61,29.8-10.61t29.8,10.61q13.75,12.52,13.76,37.51Q341.67,97.85,327.91,110.86ZM316,97q6.63-8.33,6.63-23.69T316,49.69q-6.63-8.36-17.92-8.36t-18,8.33q-6.72,8.33-6.72,23.69T280.09,97q6.74,8.33,18,8.33T316,97Z" transform="translate(-1.18 -1.22)"/><path class="cls-4" d="M422.24,28V44.11H395v74.83H375.91V44.11H348.58V28Z" transform="translate(-1.18 -1.22)"/><path class="cls-4" d="M450.68,118.94H431.8V28h18.88Z" transform="translate(-1.18 -1.22)"/><path class="cls-4" d="M477.14,37.51q11-11.23,27.95-11.23,22.71,0,33.21,15,5.79,8.46,6.22,17h-19q-1.82-6.54-4.65-9.87-5.08-5.93-15.05-5.93a18.56,18.56,0,0,0-16,8.36q-5.87,8.37-5.86,23.66t6.18,22.92a19.4,19.4,0,0,0,15.72,7.62q9.78,0,14.91-6.54Q523.59,95,525.46,88h18.88q-2.45,14.86-12.48,24.19t-25.73,9.31q-19.41,0-30.52-12.58T464.5,74.21Q464.5,50.41,477.14,37.51Z" transform="translate(-1.18 -1.22)"/><path class="cls-4" d="M627,44.11H578.82V63.42H623V79.21H578.82v23.38h50.35v16.35H560.25V28H627Z" transform="translate(-1.18 -1.22)"/><rect class="cls-2" x="395" y="134.23" width="390.6" height="286.85"/><path class="cls-5" d="M208.13,339.36c-34.06,0-68.11.06-102.17-.05-7.24,0-10.75-4.47-9.36-9.91.68-2.68,2.42-5.13,3.83-7.59q9.69-16.83,19.46-33.59c4.56-7.86,9.19-15.68,13.73-23.55,7-12.2,14-24.43,21-36.63,6.12-10.61,12.31-21.17,18.44-31.78,7.43-12.85,14.87-25.69,22.2-38.6,1.85-3.25,3.85-6.42,5.5-9.81a8.1,8.1,0,0,1,7.51-4.92c3.07.11,5.28,1.85,7.1,4.83C225.94,165,235.56,182.66,245.8,200c6.6,11.17,13,22.44,19.49,33.69,5.75,10,11.66,20,17.44,30,3.65,6.33,7.12,12.76,10.76,19.09,4.87,8.49,9.91,16.88,14.72,25.41,3.72,6.61,7.91,13,11.18,19.84,2.27,4.73.14,9.1-4.78,10.62a19,19,0,0,1-5.72.72H208.13Zm.46-6.88h86.77a12.83,12.83,0,0,0,5.48-.79c5.58-2.54,7.25-8.58,3.89-14.39Q276.88,269,249,220.81q-16-27.69-31.92-55.42c-4.25-7.38-13-7.46-17.3-.13-2.71,4.62-5.36,9.27-8,13.91-6.05,10.47-12,21-18.18,31.4-10.37,17.63-20.27,35.52-30.85,53-3.25,5.38-6.19,11-9.32,16.49-7.24,12.69-14.62,25.3-21.87,38-2.76,4.84-1.16,10.08,3.27,13.23,2.26,1.6,4.45,1.2,6.78,1.2Q165.07,332.47,208.59,332.48Z" transform="translate(-1.18 -1.22)"/><path class="cls-6" d="M208.59,332.48q-43.51,0-87,0c-2.33,0-4.52.4-6.78-1.2-4.43-3.15-6-8.39-3.27-13.23,7.25-12.69,14.63-25.3,21.87-38,3.13-5.49,6.07-11.11,9.32-16.49,10.58-17.5,20.48-35.39,30.85-53,6.14-10.42,12.13-20.93,18.18-31.4,2.68-4.64,5.33-9.29,8-13.91,4.3-7.33,13.05-7.25,17.3.13Q233,193.1,249,220.81q27.86,48.26,55.75,96.49c3.36,5.81,1.69,11.85-3.89,14.39a12.83,12.83,0,0,1-5.48.79Zm-.33-6h87.06c5.1,0,6.45-2.3,3.93-6.64q-24.08-41.52-48.13-83C238,214.14,225,191.4,212,168.7c-2.22-3.87-5-3.81-7.28.08l-35.63,61.66q-25.78,44.63-51.57,89.25c-2.56,4.44-1.14,6.82,4,6.82Z" transform="translate(-1.18 -1.22)"/><path class="cls-5" d="M208.26,326.51H121.48c-5.12,0-6.54-2.38-4-6.82q25.77-44.62,51.57-89.25l35.63-61.66c2.25-3.89,5.06-3.95,7.28-.08,13.06,22.7,26,45.44,39.14,68.12q24,41.55,48.13,83c2.52,4.34,1.17,6.64-3.93,6.64Zm22.53-69a16,16,0,0,1-5.37,12.72q-2.34,2.22-4.54,4.56C216,280,213,286,212.88,293.22a17.34,17.34,0,0,1-.37,4.15,9,9,0,0,1-17.63-1.63c-.15-1.51-.34-2.8-2-3.26-2.38-.67-3.82.91-3.52,3.83.78,7.78,7.53,13.8,15,13.36a14.43,14.43,0,0,0,14-14.83,22.06,22.06,0,0,1,6-15.45c1.7-1.85,3.52-3.6,5.3-5.37,5.33-5.28,7.31-11.74,6.7-19.09A27.42,27.42,0,0,0,214,230a26.79,26.79,0,0,0-24.46,7.26,27.49,27.49,0,0,0-8.32,17.85c-.26,2.68.61,4.74,2.47,4.76,2.58,0,3.07-1.74,3.19-4a22.15,22.15,0,0,1,22.92-20.91C221.28,235.35,230.81,245.43,230.79,257.55Zm-36.09-.95c.23,1.09-.58,2.83,1.45,3.48s3.56-.15,3.82-2.59c.52-4.84,3.13-7.92,7.59-9.61,4.95-1.89,11.58,2.19,12.5,7.72.11.65.16,1.3.23,2,.21,1.72,1.09,2.76,2.92,2.68s2.5-1.2,2.57-3c.31-7.78-6.53-14.78-14.78-15.27A15.39,15.39,0,0,0,194.7,256.6Z" transform="translate(-1.18 -1.22)"/><path class="cls-6" d="M230.79,257.55c0-12.12-9.51-22.2-21-22.5A22.15,22.15,0,0,0,186.85,256c-.12,2.21-.61,4-3.19,4-1.86,0-2.73-2.08-2.47-4.76a27.49,27.49,0,0,1,8.32-17.85A26.79,26.79,0,0,1,214,230a27.42,27.42,0,0,1,22.37,24.89c.61,7.35-1.37,13.81-6.7,19.09-1.78,1.77-3.6,3.52-5.3,5.37a22.06,22.06,0,0,0-6,15.45,14.43,14.43,0,0,1-14,14.83c-7.43.44-14.18-5.58-15-13.36-.3-2.92,1.14-4.5,3.52-3.83,1.66.46,1.85,1.75,2,3.26a9,9,0,0,0,17.63,1.63,17.34,17.34,0,0,0,.37-4.15c.11-7.25,3.14-13.22,8-18.39q2.2-2.34,4.54-4.56A16,16,0,0,0,230.79,257.55Z" transform="translate(-1.18 -1.22)"/><path class="cls-6" d="M194.7,256.6A15.39,15.39,0,0,1,211,242c8.25.49,15.09,7.49,14.78,15.27-.07,1.76-.7,2.88-2.57,3s-2.71-1-2.92-2.68c-.07-.65-.12-1.3-.23-2-.92-5.53-7.55-9.61-12.5-7.72-4.46,1.69-7.07,4.77-7.59,9.61-.26,2.44-1.67,3.29-3.82,2.59S194.93,257.69,194.7,256.6Z" transform="translate(-1.18 -1.22)"/><rect class="cls-7" x="8.73" y="426.14" width="773.7" height="176.39" rx="6.05"/><rect class="cls-7" x="8.73" y="423.08" width="773.7" height="18.33"/><path class="cls-8" d="M77.85,466H70.23V483.5H63.87V443.3H77.13a16.7,16.7,0,0,1,7.14,1.29,10.34,10.34,0,0,1,4.41,4.11,11.18,11.18,0,0,1,1.71,5.88A12,12,0,0,1,89,460.34a10.45,10.45,0,0,1-4.17,4.17A13.55,13.55,0,0,1,77.85,466ZM84,454.7a4.58,4.58,0,0,0-1.41-3.6,4.88,4.88,0,0,0-3.15-1.32h-9.3v9.9h9.54a4.07,4.07,0,0,0,3.06-1.32A5.08,5.08,0,0,0,84,454.7Z" transform="translate(-1.18 -1.22)"/><path class="cls-8" d="M121.71,483.5h-25V443.3h23.7v6.36H103.11v9.9h11.7V466h-11.7v11h18.6Z" transform="translate(-1.18 -1.22)"/><path class="cls-8" d="M155,483.5h-5.64L134,456.26V483.5h-6.36V443.3H134L148.65,469V443.3H155Z" transform="translate(-1.18 -1.22)"/><path class="cls-8" d="M193.11,483.5h-6.72l-4-11.28H169.89l-4,11.28h-6.78L173,443.3h6.36Zm-13-17.76-4-11.28-4.08,11.28Z" transform="translate(-1.18 -1.22)"/><path class="cls-8" d="M222.21,483.5h-25V443.3h6.36V477h18.6Z" transform="translate(-1.18 -1.22)"/><path class="cls-8" d="M253,448.94h-9.3V483.5h-6.36V448.94h-9.18V443.3H253Z" transform="translate(-1.18 -1.22)"/><path class="cls-8" d="M292,443.3,278.07,466V483.5h-6.36V466l-14.1-22.74h7.62l9.6,15.54,9.72-15.54Z" transform="translate(-1.18 -1.22)"/><path class="cls-8" d="M336.81,449.66h-18.6v9.9h11.7V466h-11.7V483.5h-6.36V443.3h25Z" transform="translate(-1.18 -1.22)"/><path class="cls-8" d="M356.67,484.22a12.55,12.55,0,0,1-10.89-5.37Q342,473.48,342,463.4q0-9.84,3.81-15.3a12.48,12.48,0,0,1,10.89-5.46q7.2,0,10.95,5.46t3.75,15.3q0,10.08-3.75,15.45T356.67,484.22Zm0-35.22a6.39,6.39,0,0,0-6.12,4,24.35,24.35,0,0,0-2,10.29q0,7.08,1.89,10.74a6.36,6.36,0,0,0,6.21,3.6q4.56-.12,6.3-3.78t1.86-10.56q-.12-6.72-2-10.38A6.9,6.9,0,0,0,356.67,449Z" transform="translate(-1.18 -1.22)"/><path class="cls-8" d="M404,483.5h-6.9L390.63,466H383V483.5h-6.36V443.3h15.9a9.64,9.64,0,0,1,7.77,3.57,12,12,0,0,1,2.85,7.71,11.39,11.39,0,0,1-1.74,6,10.2,10.2,0,0,1-4.5,4.11Zm-7.14-28.74a4.58,4.58,0,0,0-1.41-3.6,4.88,4.88,0,0,0-3.15-1.32H383v9.9h9.54a4.07,4.07,0,0,0,3.06-1.32A5.08,5.08,0,0,0,396.87,454.76Z" transform="translate(-1.18 -1.22)"/><path class="cls-8" d="M454.11,443.3l-12.42,40.2h-5.82l-12.24-40.2h6.66l8.58,26.82,8.46-26.82Z" transform="translate(-1.18 -1.22)"/><path class="cls-8" d="M467,483.5h-6.48V443.3H467Z" transform="translate(-1.18 -1.22)"/><path class="cls-8" d="M489,484.22a12.55,12.55,0,0,1-10.89-5.37q-3.81-5.37-3.81-15.45,0-9.84,3.81-15.3A12.48,12.48,0,0,1,489,442.64q7.2,0,10.95,5.46t3.75,15.3q0,10.08-3.75,15.45T489,484.22ZM489,449a6.39,6.39,0,0,0-6.12,4,24.35,24.35,0,0,0-2,10.29q0,7.08,1.89,10.74a6.36,6.36,0,0,0,6.21,3.6q4.56-.12,6.3-3.78t1.86-10.56q-.12-6.72-2-10.38A6.9,6.9,0,0,0,489,449Z" transform="translate(-1.18 -1.22)"/><path class="cls-8" d="M533.91,483.5H509V443.3h6.36V477h18.6Z" transform="translate(-1.18 -1.22)"/><path class="cls-8" d="M572,483.5h-6.72l-4-11.28H548.79l-4,11.28h-6.78l13.8-40.2h6.36Zm-13-17.76-4-11.28L551,465.74Z" transform="translate(-1.18 -1.22)"/><path class="cls-8" d="M601,448.94h-9.3V483.5h-6.36V448.94h-9.18V443.3H601Z" transform="translate(-1.18 -1.22)"/><path class="cls-8" d="M615.51,483.5H609V443.3h6.48Z" transform="translate(-1.18 -1.22)"/><path class="cls-8" d="M637.47,484.22a12.55,12.55,0,0,1-10.89-5.37q-3.81-5.37-3.81-15.45,0-9.84,3.81-15.3a12.48,12.48,0,0,1,10.89-5.46q7.2,0,10.95,5.46t3.75,15.3q0,10.08-3.75,15.45T637.47,484.22Zm0-35.22a6.39,6.39,0,0,0-6.12,4,24.35,24.35,0,0,0-2,10.29q0,7.08,1.89,10.74a6.36,6.36,0,0,0,6.21,3.6q4.56-.12,6.3-3.78t1.86-10.56q-.12-6.72-2-10.38A6.9,6.9,0,0,0,637.47,449Z" transform="translate(-1.18 -1.22)"/><path class="cls-8" d="M684.81,483.5h-5.64l-15.36-27.24V483.5h-6.36V443.3h6.36L678.45,469V443.3h6.36Z" transform="translate(-1.18 -1.22)"/><path class="cls-8" d="M708.81,452.42a6.44,6.44,0,0,0-5.94-3.6,5.53,5.53,0,0,0-3.9,1.44,4.31,4.31,0,0,0-1.5,3.42,3.29,3.29,0,0,0,1.41,2.58,9.52,9.52,0,0,0,4.47,1.62q7.26,1.26,10.53,4.89a12.06,12.06,0,0,1,3.27,8.31,12.72,12.72,0,0,1-3.9,9.15,13,13,0,0,1-9.72,4q-9.24-.12-13.74-9.36l6.06-3.06q2.82,5.82,7.8,5.82a6.64,6.64,0,0,0,5-2,6.57,6.57,0,0,0,2.1-4.83,5.23,5.23,0,0,0-1.62-3.69q-1.68-1.83-5.94-2.61-5.76-.84-8.82-3.51a8.21,8.21,0,0,1-3.06-6.39,11.76,11.76,0,0,1,3.12-8.19,10.78,10.78,0,0,1,8.58-3.75q7.5.18,11.16,7.08Z" transform="translate(-1.18 -1.22)"/><path class="cls-8" d="M728.61,456.68a3.09,3.09,0,0,1-1,2.31,3.17,3.17,0,0,1-2.28.93,3.18,3.18,0,1,1,3.24-3.24Zm0,24a3.09,3.09,0,0,1-1,2.31,3.17,3.17,0,0,1-2.28.93,3.18,3.18,0,1,1,3.24-3.24Z" transform="translate(-1.18 -1.22)"/><path class="cls-9" d="M102.08,530.3H85.86V504.17H90v21.92h12.09Z" transform="translate(-1.18 -1.22)"/><path class="cls-9" d="M115,530.77a8.17,8.17,0,0,1-7.08-3.49q-2.47-3.49-2.48-10,0-6.39,2.48-9.94a8.87,8.87,0,0,1,14.2,0q2.43,3.56,2.43,9.94,0,6.56-2.43,10A8.16,8.16,0,0,1,115,530.77Zm0-22.9a4.16,4.16,0,0,0-4,2.6,15.93,15.93,0,0,0-1.29,6.69,15.66,15.66,0,0,0,1.23,7,4.16,4.16,0,0,0,4,2.34,4.26,4.26,0,0,0,4.09-2.46,17,17,0,0,0,1.21-6.86,15.58,15.58,0,0,0-1.3-6.75A4.49,4.49,0,0,0,115,507.87Z" transform="translate(-1.18 -1.22)"/><path class="cls-9" d="M139.72,510.1a4.18,4.18,0,0,0-3.87-2.34,3.61,3.61,0,0,0-2.53.93,2.83,2.83,0,0,0-1,2.23,2.13,2.13,0,0,0,.92,1.67,6.14,6.14,0,0,0,2.91,1.06q4.71.81,6.84,3.17a7.86,7.86,0,0,1,2.13,5.41,8.27,8.27,0,0,1-2.54,5.94,8.47,8.47,0,0,1-6.32,2.6c-4-.06-7-2.08-8.93-6.09l3.94-2q1.83,3.79,5.07,3.79a4.34,4.34,0,0,0,3.24-1.31A4.27,4.27,0,0,0,141,522a3.39,3.39,0,0,0-1.05-2.4,6.82,6.82,0,0,0-3.86-1.69,11,11,0,0,1-5.73-2.29,5.31,5.31,0,0,1-2-4.15,7.57,7.57,0,0,1,2-5.32,7,7,0,0,1,5.57-2.44,8,8,0,0,1,7.26,4.6Z" transform="translate(-1.18 -1.22)"/><path class="cls-9" d="M160.19,510.1a4.17,4.17,0,0,0-3.86-2.34,3.62,3.62,0,0,0-2.54.93,2.82,2.82,0,0,0-1,2.23,2.1,2.1,0,0,0,.92,1.67,6.1,6.1,0,0,0,2.9,1.06q4.73.81,6.85,3.17a7.9,7.9,0,0,1,2.12,5.41,8.26,8.26,0,0,1-2.53,5.94,8.48,8.48,0,0,1-6.32,2.6c-4-.06-7-2.08-8.93-6.09l3.94-2q1.83,3.79,5.07,3.79a4.33,4.33,0,0,0,3.23-1.31,4.28,4.28,0,0,0,1.37-3.14,3.45,3.45,0,0,0-1.06-2.4,6.78,6.78,0,0,0-3.86-1.69,11,11,0,0,1-5.73-2.29,5.31,5.31,0,0,1-2-4.15,7.66,7.66,0,0,1,2-5.32,7,7,0,0,1,5.58-2.44,8,8,0,0,1,7.25,4.6Z" transform="translate(-1.18 -1.22)"/><path class="cls-9" d="M187.92,530.77a8.17,8.17,0,0,1-7.08-3.49q-2.47-3.49-2.48-10,0-6.39,2.48-9.94a8.87,8.87,0,0,1,14.2,0q2.43,3.56,2.43,9.94,0,6.56-2.43,10A8.16,8.16,0,0,1,187.92,530.77Zm0-22.9a4.16,4.16,0,0,0-4,2.6,15.93,15.93,0,0,0-1.29,6.69,15.66,15.66,0,0,0,1.23,7,4.16,4.16,0,0,0,4,2.34A4.27,4.27,0,0,0,192,524a17,17,0,0,0,1.21-6.86,15.72,15.72,0,0,0-1.3-6.75A4.5,4.5,0,0,0,187.92,507.87Z" transform="translate(-1.18 -1.22)"/><path class="cls-9" d="M217.13,508.3H205v6.44h7.6V519H205V530.3h-4.13V504.17h16.22Z" transform="translate(-1.18 -1.22)"/><path class="cls-9" d="M240.29,519h-4.95V530.3h-4.13V504.17h8.62a10.85,10.85,0,0,1,4.64.84,6.72,6.72,0,0,1,2.86,2.67,7.17,7.17,0,0,1,1.12,3.82,7.81,7.81,0,0,1-.9,3.75,6.85,6.85,0,0,1-2.71,2.71A8.89,8.89,0,0,1,240.29,519Zm4-7.37a3,3,0,0,0-.91-2.34,3.19,3.19,0,0,0-2.05-.86h-6.05v6.44h6.2a2.65,2.65,0,0,0,2-.86A3.29,3.29,0,0,0,244.27,511.58Z" transform="translate(-1.18 -1.22)"/><path class="cls-9" d="M270.36,530.3h-4.48L261.67,519h-5V530.3h-4.13V504.17h10.33a6.26,6.26,0,0,1,5,2.32,7.75,7.75,0,0,1,1.86,5,7.42,7.42,0,0,1-1.13,3.92,6.58,6.58,0,0,1-2.93,2.67Zm-4.64-18.68a3,3,0,0,0-.91-2.34,3.21,3.21,0,0,0-2.05-.86h-6.05v6.43h6.2a2.64,2.64,0,0,0,2-.85A3.31,3.31,0,0,0,265.72,511.62Z" transform="translate(-1.18 -1.22)"/><path class="cls-9" d="M279.72,530.3h-4.21V504.17h4.21Z" transform="translate(-1.18 -1.22)"/><path class="cls-9" d="M303.71,504.17l-8.08,26.13h-3.78l-8-26.13h4.32l5.58,17.43,5.5-17.43Z" transform="translate(-1.18 -1.22)"/><path class="cls-9" d="M322.82,530.3H306.59V504.17H322v4.13H310.73v6.44h7.6V519h-7.6v7.14h12.09Z" transform="translate(-1.18 -1.22)"/><path class="cls-9" d="M342.9,530.3H326.68V504.17h4.13v21.92H342.9Z" transform="translate(-1.18 -1.22)"/><path class="cls-9" d="M363,530.3H346.76V504.17h15.41v4.13H350.9v6.44h7.6V519h-7.6v7.14H363Z" transform="translate(-1.18 -1.22)"/><path class="cls-9" d="M376.25,526.59q3.51-.08,4.17-4.83h-4v-4.37h8.74v1.13q0,6-2.4,9.15a7.61,7.61,0,0,1-6.38,3.1,8.34,8.34,0,0,1-7.19-3.59q-2.48-3.55-2.48-9.95t2.48-9.94a8.1,8.1,0,0,1,7.08-3.55,8.48,8.48,0,0,1,8,4.95l-3.86,1.91a4.42,4.42,0,0,0-4.17-2.73,4.16,4.16,0,0,0-4,2.6,18.93,18.93,0,0,0,0,13.53A4.15,4.15,0,0,0,376.25,526.59Z" transform="translate(-1.18 -1.22)"/><path class="cls-9" d="M405.11,530.3H388.88V504.17h15.41v4.13H393v6.44h7.6V519H393v7.14h12.09Z" transform="translate(-1.18 -1.22)"/><path class="cls-9" d="M420.71,510.1a4.18,4.18,0,0,0-3.87-2.34,3.61,3.61,0,0,0-2.53.93,2.83,2.83,0,0,0-1,2.23,2.13,2.13,0,0,0,.92,1.67,6.14,6.14,0,0,0,2.91,1.06q4.71.81,6.84,3.17a7.86,7.86,0,0,1,2.13,5.41,8.27,8.27,0,0,1-2.54,5.94,8.48,8.48,0,0,1-6.32,2.6c-4-.06-7-2.08-8.93-6.09l3.94-2q1.83,3.79,5.07,3.79a4.34,4.34,0,0,0,3.24-1.31A4.27,4.27,0,0,0,422,522a3.39,3.39,0,0,0-1.05-2.4,6.82,6.82,0,0,0-3.86-1.69,11,11,0,0,1-5.73-2.29,5.31,5.31,0,0,1-2-4.15,7.62,7.62,0,0,1,2-5.32,7,7,0,0,1,5.57-2.44,8,8,0,0,1,7.26,4.6Z" transform="translate(-1.18 -1.22)"/><path class="cls-9" d="M453.11,510.6l-4.36,1.1,2.92,3.47-2.65,2-2.69-3.67-2.65,3.67L441,515.09l2.85-3.47-4.41-1,1-3.31,4.29,1.48-.16-4.6H448l-.19,4.6,4.29-1.36Z" transform="translate(-1.18 -1.22)"/><path class="cls-9" d="M483.3,530.3H467.07V504.17h15.41v4.13H471.21v6.44h7.6V519h-7.6v7.14H483.3Z" transform="translate(-1.18 -1.22)"/><path class="cls-9" d="M504.16,530.3h-4.68l-4.21-8.7-4.21,8.7h-4.68l6.51-13.46-6-12.67h4.64l3.78,7.8,3.74-7.8h4.69l-6.13,12.67Z" transform="translate(-1.18 -1.22)"/><path class="cls-9" d="M523.39,507.83h-6V530.3h-4.13V507.83h-6v-3.66h16.15Z" transform="translate(-1.18 -1.22)"/><path class="cls-9" d="M545.11,530.3h-4.48L536.42,519h-5V530.3h-4.13V504.17h10.33a6.26,6.26,0,0,1,5.05,2.32,7.75,7.75,0,0,1,1.86,5,7.42,7.42,0,0,1-1.13,3.92,6.58,6.58,0,0,1-2.93,2.67Zm-4.64-18.68a3,3,0,0,0-.91-2.34,3.21,3.21,0,0,0-2-.86h-6v6.43h6.2a2.64,2.64,0,0,0,2-.85A3.31,3.31,0,0,0,540.47,511.62Z" transform="translate(-1.18 -1.22)"/><path class="cls-9" d="M569.88,530.3h-4.37L562.94,523h-8.16l-2.57,7.33H547.8l9-26.13h4.14Zm-8.43-11.55-2.57-7.33-2.65,7.33Z" transform="translate(-1.18 -1.22)"/><path class="cls-9" d="M592.15,526.59a4.39,4.39,0,0,0,4.17-2.73l3.86,1.91a8.48,8.48,0,0,1-8,5,8.13,8.13,0,0,1-7.08-3.55q-2.48-3.55-2.48-9.95t2.48-9.94a8.1,8.1,0,0,1,7.08-3.55,8.48,8.48,0,0,1,8,4.95l-3.86,1.91a4.42,4.42,0,0,0-4.17-2.73,4.16,4.16,0,0,0-4,2.6,18.93,18.93,0,0,0,0,13.53A4.15,4.15,0,0,0,592.15,526.59Z" transform="translate(-1.18 -1.22)"/><path class="cls-9" d="M621.94,530.3h-4.13V519h-9.52V530.3h-4.13V504.17h4.13v10.57h9.52V504.17h4.13Z" transform="translate(-1.18 -1.22)"/><path class="cls-9" d="M634.85,530.77a8.17,8.17,0,0,1-7.08-3.49q-2.47-3.49-2.48-10,0-6.39,2.48-9.94a8.87,8.87,0,0,1,14.2,0q2.43,3.56,2.43,9.94,0,6.56-2.43,10A8.16,8.16,0,0,1,634.85,530.77Zm0-22.9a4.16,4.16,0,0,0-4,2.6,15.93,15.93,0,0,0-1.29,6.69,15.66,15.66,0,0,0,1.23,7,4.16,4.16,0,0,0,4,2.34,4.26,4.26,0,0,0,4.09-2.46,17,17,0,0,0,1.21-6.86,15.58,15.58,0,0,0-1.3-6.75A4.49,4.49,0,0,0,634.85,507.87Z" transform="translate(-1.18 -1.22)"/><path class="cls-9" d="M665.62,530.3h-4.49L656.92,519H652V530.3h-4.13V504.17h10.33a6.27,6.27,0,0,1,5.05,2.32,7.74,7.74,0,0,1,1.85,5,7.33,7.33,0,0,1-1.13,3.92,6.56,6.56,0,0,1-2.92,2.67ZM661,511.62a3,3,0,0,0-.92-2.34,3.16,3.16,0,0,0-2-.86h-6v6.43h6.2a2.66,2.66,0,0,0,2-.85A3.31,3.31,0,0,0,661,511.62Z" transform="translate(-1.18 -1.22)"/><path class="cls-9" d="M685.7,530.3H669.48V504.17h15.41v4.13H673.61v6.44h7.61V519h-7.61v7.14H685.7Z" transform="translate(-1.18 -1.22)"/><path class="cls-9" d="M701.3,510.1a4.17,4.17,0,0,0-3.86-2.34,3.59,3.59,0,0,0-2.53.93,2.83,2.83,0,0,0-1,2.23,2.13,2.13,0,0,0,.92,1.67,6.14,6.14,0,0,0,2.9,1.06q4.72.81,6.85,3.17a7.86,7.86,0,0,1,2.13,5.41,8.27,8.27,0,0,1-2.54,5.94,8.48,8.48,0,0,1-6.32,2.6c-4-.06-7-2.08-8.93-6.09l3.94-2q1.83,3.79,5.07,3.79a4.34,4.34,0,0,0,3.24-1.31,4.27,4.27,0,0,0,1.36-3.14,3.39,3.39,0,0,0-1-2.4,6.85,6.85,0,0,0-3.86-1.69,11,11,0,0,1-5.73-2.29,5.31,5.31,0,0,1-2-4.15,7.61,7.61,0,0,1,2-5.32,7,7,0,0,1,5.58-2.44,8,8,0,0,1,7.26,4.6Z" transform="translate(-1.18 -1.22)"/><path class="cls-9" d="M131.54,554.63h-6V577.1h-4.13V554.63h-6V551h16.14Z" transform="translate(-1.18 -1.22)"/><path class="cls-9" d="M144.53,577.57a8.17,8.17,0,0,1-7.08-3.49Q135,570.59,135,564q0-6.39,2.47-9.94a8.87,8.87,0,0,1,14.2,0q2.43,3.55,2.44,9.94,0,6.56-2.44,10.05A8.16,8.16,0,0,1,144.53,577.57Zm0-22.9a4.17,4.17,0,0,0-4,2.6,19.23,19.23,0,0,0-.05,13.67,4.14,4.14,0,0,0,4,2.34,4.29,4.29,0,0,0,4.1-2.46,17.39,17.39,0,0,0,1.21-6.86,15.68,15.68,0,0,0-1.31-6.75A4.49,4.49,0,0,0,144.53,554.67Z" transform="translate(-1.18 -1.22)"/><path class="cls-9" d="M185.21,569.3a8.43,8.43,0,0,1-1.89,5.48,6.69,6.69,0,0,1-5.52,2.32H167.5V551h9.91a7.36,7.36,0,0,1,5.15,1.89,6.82,6.82,0,0,1,2.06,5.28c0,2.63-.87,4.45-2.53,5.46A6,6,0,0,1,185.21,569.3Zm-4.25.12a3.87,3.87,0,0,0-.86-2.44,2.79,2.79,0,0,0-2.15-1H171.6v7h6.2a2.77,2.77,0,0,0,2.3-1.09A3.85,3.85,0,0,0,181,569.42Zm-.31-11a3.47,3.47,0,0,0-.77-2.34,2.71,2.71,0,0,0-2.2-.9h-6v6.36h6a2.64,2.64,0,0,0,2.15-1A3.54,3.54,0,0,0,180.65,558.46Z" transform="translate(-1.18 -1.22)"/><path class="cls-9" d="M205.33,577.1H189.11V551h15.4v4.13H193.24v6.44h7.61v4.21h-7.61v7.14h12.09Z" transform="translate(-1.18 -1.22)"/><path class="cls-9" d="M236.92,564q0,6.83-2.83,10a8.83,8.83,0,0,1-6.84,3.12H219.1V551h8.15a8.83,8.83,0,0,1,6.84,3.12Q236.88,557.21,236.92,564Zm-13.69,0V573h4a4.73,4.73,0,0,0,4.08-2.49,12.69,12.69,0,0,0,1.5-6.44,12.06,12.06,0,0,0-1.49-6.57,4.83,4.83,0,0,0-4.09-2.36h-4Z" transform="translate(-1.18 -1.22)"/><path class="cls-9" d="M257,577.1H240.78V551h15.41v4.13H244.92v6.44h7.6v4.21h-7.6v7.14H257Z" transform="translate(-1.18 -1.22)"/><path class="cls-9" d="M277,554.63h-6V577.1h-4.14V554.63h-6V551H277Z" transform="translate(-1.18 -1.22)"/><path class="cls-9" d="M297.18,577.1H281V551h15.41v4.13H285.09v6.44h7.6v4.21h-7.6v7.14h12.09Z" transform="translate(-1.18 -1.22)"/><path class="cls-9" d="M318.82,577.1h-4.48l-4.22-11.35h-4.95V577.1H301V551h10.33a6.27,6.27,0,0,1,5.05,2.32,7.74,7.74,0,0,1,1.85,5,7.33,7.33,0,0,1-1.13,3.92,6.56,6.56,0,0,1-2.92,2.67Zm-4.64-18.68a3,3,0,0,0-.92-2.34,3.16,3.16,0,0,0-2-.86h-6.05v6.43h6.2a2.66,2.66,0,0,0,2-.85A3.31,3.31,0,0,0,314.18,558.42Z" transform="translate(-1.18 -1.22)"/><path class="cls-9" d="M342.92,577.1h-4.13V562l-6.05,15.13-6-15.13V577.1h-4.14V551h4.14l6,14.66L338.79,551h4.13Z" transform="translate(-1.18 -1.22)"/><path class="cls-9" d="M352.17,577.1H348V551h4.22Z" transform="translate(-1.18 -1.22)"/><path class="cls-9" d="M375.18,577.1h-3.67l-10-17.71V577.1h-4.13V551h4.13L371,567.66V551h4.14Z" transform="translate(-1.18 -1.22)"/><path class="cls-9" d="M395.26,577.1H379V551h15.4v4.13H383.17v6.44h7.6v4.21h-7.6v7.14h12.09Z" transform="translate(-1.18 -1.22)"/><path class="cls-9" d="M416.9,564c0,4.55-1,7.87-2.82,10a8.83,8.83,0,0,1-6.85,3.12h-8.15V551h8.15a8.83,8.83,0,0,1,6.85,3.12C415.93,556.17,416.88,559.48,416.9,564Zm-13.69,0V573h4a4.73,4.73,0,0,0,4.08-2.49,12.69,12.69,0,0,0,1.5-6.44,12.15,12.15,0,0,0-1.48-6.57,4.86,4.86,0,0,0-4.1-2.36h-4Z" transform="translate(-1.18 -1.22)"/><path class="cls-9" d="M448.45,569.3a8.43,8.43,0,0,1-1.89,5.48A6.69,6.69,0,0,1,441,577.1H430.75V551h9.9a7.34,7.34,0,0,1,5.15,1.89,6.79,6.79,0,0,1,2.07,5.28c0,2.63-.87,4.45-2.54,5.46A6,6,0,0,1,448.45,569.3Zm-4.25.12a3.81,3.81,0,0,0-.86-2.44,2.77,2.77,0,0,0-2.14-1h-6.36v7H441a2.75,2.75,0,0,0,2.3-1.09A3.8,3.8,0,0,0,444.2,569.42Zm-.31-11a3.47,3.47,0,0,0-.76-2.34,2.72,2.72,0,0,0-2.2-.9h-6.05v6.36h6a2.62,2.62,0,0,0,2.14-1A3.48,3.48,0,0,0,443.89,558.46Z" transform="translate(-1.18 -1.22)"/><path class="cls-9" d="M473.76,551l-9,14.78V577.1h-4.14V565.75L451.42,551h4.95l6.24,10.1,6.32-10.1Z" transform="translate(-1.18 -1.22)"/><path class="cls-9" d="M507.58,577.1h-4.37l-2.58-7.33h-8.15l-2.57,7.33H485.5l9-26.13h4.14Zm-8.43-11.55-2.57-7.33-2.65,7.33Z" transform="translate(-1.18 -1.22)"/><path class="cls-9" d="M528.05,567.74a11.61,11.61,0,0,1-1.21,5.42,7.57,7.57,0,0,1-3.12,3.18,9.07,9.07,0,0,1-9.12,0,7.79,7.79,0,0,1-3.16-3.18,12,12,0,0,1-1.17-5.42V551h4.13v16.77a6.07,6.07,0,0,0,1.31,4.07,4.63,4.63,0,0,0,6.9,0,6.07,6.07,0,0,0,1.31-4.07V551h4.13Z" transform="translate(-1.18 -1.22)"/><path class="cls-9" d="M548.06,554.63h-6V577.1h-4.13V554.63h-6V551h16.15Z" transform="translate(-1.18 -1.22)"/><path class="cls-9" d="M569.78,577.1h-4.13V565.75h-9.52V577.1H552V551h4.13v10.57h9.52V551h4.13Z" transform="translate(-1.18 -1.22)"/><path class="cls-9" d="M582.69,577.57a8.17,8.17,0,0,1-7.08-3.49q-2.48-3.5-2.48-10.05,0-6.39,2.48-9.94a8.87,8.87,0,0,1,14.2,0q2.43,3.55,2.43,9.94,0,6.56-2.43,10.05A8.16,8.16,0,0,1,582.69,577.57Zm0-22.9a4.16,4.16,0,0,0-4,2.6,15.93,15.93,0,0,0-1.29,6.69,15.66,15.66,0,0,0,1.23,7,4.16,4.16,0,0,0,4,2.34,4.26,4.26,0,0,0,4.09-2.46A17,17,0,0,0,588,564a15.54,15.54,0,0,0-1.3-6.75A4.49,4.49,0,0,0,582.69,554.67Z" transform="translate(-1.18 -1.22)"/><path class="cls-9" d="M613.46,577.1H609l-4.21-11.35h-5V577.1h-4.13V551H606a6.27,6.27,0,0,1,5,2.32,7.74,7.74,0,0,1,1.85,5,7.33,7.33,0,0,1-1.13,3.92,6.56,6.56,0,0,1-2.92,2.67Zm-4.64-18.68a3,3,0,0,0-.92-2.34,3.16,3.16,0,0,0-2-.86h-6v6.43H606a2.66,2.66,0,0,0,2-.85A3.31,3.31,0,0,0,608.82,558.42Z" transform="translate(-1.18 -1.22)"/><path class="cls-9" d="M622.82,577.1h-4.21V551h4.21Z" transform="translate(-1.18 -1.22)"/><path class="cls-9" d="M644.19,554.63h-6V577.1H634V554.63h-6V551h16.15Z" transform="translate(-1.18 -1.22)"/><path class="cls-9" d="M669.54,551l-9,14.78V577.1h-4.13V565.75L647.19,551h5l6.24,10.1,6.32-10.1Z" transform="translate(-1.18 -1.22)"/><path class="cls-9" d="M676.64,551v9.12l-.78,10.26h-2.69l-.74-10.26V551Zm0,24.26a2.05,2.05,0,0,1-.64,1.46,2.11,2.11,0,1,1,0-2.93A2.06,2.06,0,0,1,676.64,575.23Z" transform="translate(-1.18 -1.22)"/><path d="M437.36,228.44h-4.89l-13.31-23.61v23.61h-5.52V193.6h5.52l12.68,22.25V193.6h5.52Z" transform="translate(-1.18 -1.22)"/><path d="M454.57,229.06a10.88,10.88,0,0,1-9.44-4.65q-3.3-4.65-3.3-13.39,0-8.53,3.3-13.26a11.83,11.83,0,0,1,18.93,0q3.24,4.73,3.25,13.26,0,8.73-3.25,13.39A10.85,10.85,0,0,1,454.57,229.06Zm0-30.52a5.54,5.54,0,0,0-5.31,3.46,21,21,0,0,0-1.71,8.91c0,4.09.54,7.2,1.64,9.31a5.49,5.49,0,0,0,5.38,3.12,5.71,5.71,0,0,0,5.46-3.27q1.5-3.18,1.61-9.16-.11-5.82-1.74-9A6,6,0,0,0,454.57,198.54Z" transform="translate(-1.18 -1.22)"/><path d="M514.52,193.6l-5.14,34.84h-4.89L499,206.08l-5.35,22.36h-4.89l-5.15-34.84h5.62L491.9,212l4.42-18.35h5.36L506.2,212l2.71-18.35Z" transform="translate(-1.18 -1.22)"/><path d="M541.87,228.44h-5.51V213.31H523.67v15.13h-5.51V193.6h5.51v14.09h12.69V193.6h5.51Z" transform="translate(-1.18 -1.22)"/><path d="M554.35,228.44h-5.61V193.6h5.61Z" transform="translate(-1.18 -1.22)"/><path d="M585,228.44h-4.88l-13.32-23.61v23.61h-5.51V193.6h5.51l12.69,22.25V193.6H585Z" transform="translate(-1.18 -1.22)"/><path d="M597.51,228.44H591.9V193.6h5.61Z" transform="translate(-1.18 -1.22)"/><path d="M628.19,228.44H623.3L610,204.83v23.61h-5.51V193.6H610l12.69,22.25V193.6h5.51Z" transform="translate(-1.18 -1.22)"/><path d="M645.87,223.5q4.68-.1,5.57-6.45h-5.36v-5.82h11.65v1.5q-.06,8.07-3.2,12.2a10.14,10.14,0,0,1-8.5,4.13,11.09,11.09,0,0,1-9.6-4.78q-3.3-4.74-3.3-13.26t3.3-13.26a10.81,10.81,0,0,1,9.44-4.73q7.54.15,10.71,6.6l-5.14,2.55a5.88,5.88,0,0,0-5.57-3.64,5.53,5.53,0,0,0-5.3,3.46,25.19,25.19,0,0,0,0,18A5.53,5.53,0,0,0,645.87,223.5Z" transform="translate(-1.18 -1.22)"/><path d="M437.36,290.84h-4.89l-13.31-23.61v23.61h-5.52V256h5.52l12.68,22.25V256h5.52Z" transform="translate(-1.18 -1.22)"/><path d="M454.57,291.46a10.88,10.88,0,0,1-9.44-4.65q-3.3-4.65-3.3-13.39,0-8.54,3.3-13.26a11.82,11.82,0,0,1,18.93,0q3.24,4.72,3.25,13.26,0,8.73-3.25,13.39A10.85,10.85,0,0,1,454.57,291.46Zm0-30.52a5.54,5.54,0,0,0-5.31,3.45,21,21,0,0,0-1.71,8.92c0,4.09.54,7.2,1.64,9.31a5.49,5.49,0,0,0,5.38,3.12,5.7,5.7,0,0,0,5.46-3.28q1.5-3.16,1.61-9.15-.11-5.82-1.74-9A6,6,0,0,0,454.57,260.94Z" transform="translate(-1.18 -1.22)"/><path d="M498,285.9a5.88,5.88,0,0,0,5.56-3.64l5.15,2.54q-3.18,6.45-10.71,6.61a10.83,10.83,0,0,1-9.44-4.73q-3.3-4.74-3.3-13.26t3.3-13.26a10.81,10.81,0,0,1,9.44-4.74q7.53.17,10.71,6.61l-5.15,2.55a5.85,5.85,0,0,0-5.56-3.64,5.54,5.54,0,0,0-5.31,3.45,25.36,25.36,0,0,0,0,18.05A5.54,5.54,0,0,0,498,285.9Z" transform="translate(-1.18 -1.22)"/><path d="M526.07,291.46a10.88,10.88,0,0,1-9.44-4.65q-3.3-4.65-3.3-13.39,0-8.54,3.3-13.26a11.82,11.82,0,0,1,18.93,0q3.24,4.72,3.25,13.26,0,8.73-3.25,13.39A10.85,10.85,0,0,1,526.07,291.46Zm0-30.52a5.54,5.54,0,0,0-5.31,3.45,21,21,0,0,0-1.71,8.92c0,4.09.54,7.2,1.63,9.31a5.51,5.51,0,0,0,5.39,3.12,5.7,5.7,0,0,0,5.46-3.28q1.5-3.16,1.61-9.15-.1-5.82-1.74-9A6,6,0,0,0,526.07,260.94Z" transform="translate(-1.18 -1.22)"/><path d="M570.37,290.84h-5.51V270.66l-8.06,20.18-8.06-20.18v20.18h-5.51V256h5.51l8.06,19.55L564.86,256h5.51Z" transform="translate(-1.18 -1.22)"/><path d="M587.84,275.71h-6.6v15.13h-5.52V256h11.5a14.46,14.46,0,0,1,6.19,1.12,9,9,0,0,1,3.82,3.56,9.74,9.74,0,0,1,1.48,5.09,10.37,10.37,0,0,1-1.2,5,9,9,0,0,1-3.61,3.62A11.77,11.77,0,0,1,587.84,275.71Zm5.3-9.83a4,4,0,0,0-1.22-3.12,4.23,4.23,0,0,0-2.73-1.15h-8.06v8.58h8.27a3.52,3.52,0,0,0,2.65-1.14A4.39,4.39,0,0,0,593.14,265.88Z" transform="translate(-1.18 -1.22)"/><path d="M625.85,290.84H604.22V256h5.51v29.22h16.12Z" transform="translate(-1.18 -1.22)"/><path d="M658.87,290.84h-5.82l-3.43-9.78H638.75l-3.43,9.78h-5.88l12-34.84h5.51Zm-11.23-15.39-3.43-9.78-3.54,9.78Z" transform="translate(-1.18 -1.22)"/><path d="M669.79,290.84h-5.61V256h5.61Z" transform="translate(-1.18 -1.22)"/><path d="M700.47,290.84h-4.89l-13.31-23.61v23.61h-5.51V256h5.51L695,278.25V256h5.51Z" transform="translate(-1.18 -1.22)"/><path d="M713,290.84h-5.61V256H713Z" transform="translate(-1.18 -1.22)"/><path d="M743.63,290.84h-4.89l-13.31-23.61v23.61h-5.51V256h5.51l12.69,22.25V256h5.51Z" transform="translate(-1.18 -1.22)"/><path d="M761.31,285.9q4.68-.11,5.57-6.45h-5.36v-5.83h11.65v1.51q-.06,8.07-3.2,12.2a10.14,10.14,0,0,1-8.5,4.13,11.1,11.1,0,0,1-9.6-4.78q-3.3-4.74-3.3-13.26t3.3-13.26a10.83,10.83,0,0,1,9.44-4.74q7.55.17,10.71,6.61l-5.14,2.55a5.86,5.86,0,0,0-5.57-3.64,5.53,5.53,0,0,0-5.3,3.45,25.22,25.22,0,0,0,0,18.05A5.52,5.52,0,0,0,761.31,285.9Z" transform="translate(-1.18 -1.22)"/><path d="M437.36,353.24h-4.89l-13.31-23.61v23.61h-5.52V318.4h5.52l12.68,22.25V318.4h5.52Z" transform="translate(-1.18 -1.22)"/><path d="M454.57,353.86a10.88,10.88,0,0,1-9.44-4.65q-3.3-4.65-3.3-13.39,0-8.54,3.3-13.26a11.83,11.83,0,0,1,18.93,0q3.24,4.72,3.25,13.26,0,8.73-3.25,13.39A10.85,10.85,0,0,1,454.57,353.86Zm0-30.52a5.54,5.54,0,0,0-5.31,3.45,21,21,0,0,0-1.71,8.92c0,4.09.54,7.2,1.64,9.31a5.49,5.49,0,0,0,5.38,3.12,5.71,5.71,0,0,0,5.46-3.27q1.5-3.18,1.61-9.16-.11-5.82-1.74-9A6,6,0,0,0,454.57,323.34Z" transform="translate(-1.18 -1.22)"/><path d="M513,353.24h-5.82l-3.43-9.78H492.89l-3.43,9.78h-5.88l12-34.84h5.51Zm-11.23-15.39-3.43-9.78-3.54,9.78Z" transform="translate(-1.18 -1.22)"/><path d="M538.13,323.29h-8.06v29.95h-5.51V323.29h-8V318.4h21.53Z" transform="translate(-1.18 -1.22)"/><path d="M564.91,323.29h-8.06v29.95h-5.51V323.29h-8V318.4h21.53Z" transform="translate(-1.18 -1.22)"/><path d="M577.49,353.24h-5.61V318.4h5.61Z" transform="translate(-1.18 -1.22)"/><path d="M606,323.29h-8.06v29.95h-5.51V323.29h-8V318.4H606Z" transform="translate(-1.18 -1.22)"/><path d="M635,340.76a15.47,15.47,0,0,1-1.61,7.23,10.07,10.07,0,0,1-4.16,4.23,12.11,12.11,0,0,1-12.17,0A10.44,10.44,0,0,1,612.8,348a16,16,0,0,1-1.56-7.23V318.4h5.51v22.36a8.07,8.07,0,0,0,1.75,5.43,6.17,6.17,0,0,0,9.2,0,8.12,8.12,0,0,0,1.74-5.43V318.4H635Z" transform="translate(-1.18 -1.22)"/><path d="M663.81,335.82q0,9.09-3.77,13.26a11.78,11.78,0,0,1-9.12,4.16H640.05V318.4h10.87a11.75,11.75,0,0,1,9.12,4.16Q663.76,326.71,663.81,335.82Zm-18.25,0v11.91h5.36a6.29,6.29,0,0,0,5.43-3.33,16.75,16.75,0,0,0,2-8.58q0-5.73-2-8.76a6.44,6.44,0,0,0-5.46-3.15h-5.36Z" transform="translate(-1.18 -1.22)"/><path d="M690.59,353.24H669V318.4H689.5v5.51h-15v8.58h10.14v5.62H674.47v9.51h16.12Z" transform="translate(-1.18 -1.22)"/><path d="M711.39,326.3a5.59,5.59,0,0,0-5.14-3.12,4.79,4.79,0,0,0-3.38,1.25,3.73,3.73,0,0,0-1.31,3,2.84,2.84,0,0,0,1.23,2.24,8.12,8.12,0,0,0,3.87,1.4q6.3,1.1,9.13,4.24a10.45,10.45,0,0,1,2.83,7.2,11,11,0,0,1-3.38,7.93,11.27,11.27,0,0,1-8.42,3.46q-8-.11-11.91-8.11l5.25-2.65q2.45,5,6.76,5a6.08,6.08,0,0,0,6.14-5.93,4.54,4.54,0,0,0-1.41-3.19c-1-1.06-2.68-1.82-5.15-2.27a14.63,14.63,0,0,1-7.64-3,7.1,7.1,0,0,1-2.65-5.54,10.17,10.17,0,0,1,2.7-7.09,9.34,9.34,0,0,1,7.44-3.25A10.62,10.62,0,0,1,716,324Z" transform="translate(-1.18 -1.22)"/><path d="M113.79,411.82H77.6V353.53h9.22v48.89h27Z" transform="translate(-1.18 -1.22)"/><path d="M134.67,411.82h-9.4V353.53h9.4Z" transform="translate(-1.18 -1.22)"/><path d="M172.51,366.75a9.33,9.33,0,0,0-8.61-5.22,8,8,0,0,0-5.65,2.09,6.24,6.24,0,0,0-2.18,5,4.75,4.75,0,0,0,2.05,3.74q2,1.65,6.48,2.35,10.52,1.83,15.27,7.09a17.48,17.48,0,0,1,4.74,12.05A18.46,18.46,0,0,1,179,407.08a18.93,18.93,0,0,1-14.09,5.78q-13.4-.18-19.93-13.57l8.79-4.44q4.09,8.44,11.31,8.44a10.18,10.18,0,0,0,10.27-9.92A7.64,7.64,0,0,0,173,388q-2.44-2.65-8.61-3.78Q156,383,151.55,379.15a11.9,11.9,0,0,1-4.44-9.27A17,17,0,0,1,151.63,358a15.63,15.63,0,0,1,12.44-5.44q10.88.26,16.19,10.26Z" transform="translate(-1.18 -1.22)"/><path d="M228,361.7H214.53v50.12h-9.22V361.7H192v-8.17h36Z" transform="translate(-1.18 -1.22)"/><path d="M273,411.82H236.81V353.53h34.36v9.22H246V377.1h17v9.4H246v15.92h27Z" transform="translate(-1.18 -1.22)"/><path d="M321.28,411.82h-8.17l-22.28-39.5v39.5h-9.22V353.53h9.22l21.23,37.23V353.53h9.22Z" transform="translate(-1.18 -1.22)"/><path d="M339.12,353.53v20.35l-1.74,22.89h-6l-1.65-22.89V353.53Zm0,54.11a4.93,4.93,0,1,1-1.44-3.26A4.47,4.47,0,0,1,339.12,407.64Z" transform="translate(-1.18 -1.22)"/></svg>